<?xml version="1.0" encoding="UTF-8"?>
<svg width="181px" height="224px" viewBox="0 0 181 224" version="1.1" xmlns="http://www.w3.org/2000/svg" xmlns:xlink="http://www.w3.org/1999/xlink">
    <title>Rectangle</title>
    <g id="Page-1" stroke="none" stroke-width="1" fill="none" fill-rule="evenodd">
        <g id="-All-Papers-Copy-3" fill="#FFFFFF">
            <path d="M40.2244811,0 C50.8921947,0.939638603 57.8650476,1.70840603 61.1442151,2.30630229 C88.2013866,7.24233739 106.381993,9.99490648 128.39288,15.1106343 C154.374723,21.1558555 171.904551,26.1774251 181,30.1753431 C168.951031,74.4272014 160.348321,107.702453 155.132803,130.001098 C149.939496,152.299743 143.470124,183.544964 135.752957,223.736762 L92.5219128,215.324368 C67.044266,210.886341 48.1763763,206.995049 35.9289908,203.650491 C23.6734892,200.305933 11.6984282,195.776377 0,190.061823 C0.253919081,182.949916 0.901920886,177.567667 1.94425326,173.915076 C10.8523502,142.809065 17.4221104,117.731075 21.6234898,98.6811068 C25.961018,79.0904749 32.3292435,60.6423393 38.3256657,23.6644593 C38.9023751,20.1225492 39.5349713,12.2343961 40.2244811,0 Z" id="Rectangle"></path>
        </g>
    </g>
</svg>