<?xml version="1.0" encoding="UTF-8"?>
<svg width="176px" height="223px" viewBox="0 0 176 223" version="1.1" xmlns="http://www.w3.org/2000/svg" xmlns:xlink="http://www.w3.org/1999/xlink">
    <title>Rectangle Copy 29</title>
    <g id="Page-1" stroke="none" stroke-width="1" fill="none" fill-rule="evenodd">
        <g id="-All-Papers-Copy-3" transform="translate(-1.000000, -4.000000)" fill="#FFFFFF">
            <path d="M18.0771596,15.044974 C56.2147572,18.6421334 85.0143349,20.4321872 104.475893,20.4151353 C123.93745,20.3980834 143.166901,18.5659474 162.164244,14.9187273 C159.800765,44.3119058 158.655917,63.3868786 158.7297,72.1436457 C159.085992,114.429402 162.803687,138.843797 162.019522,180.983481 C161.863613,189.361757 160.728196,197.614576 158.613271,205.741938 C131.502425,210.838361 109.610104,213.393877 92.936309,213.408486 C76.262514,213.423096 51.2510644,214.313926 17.9019601,216.080978 C16.7363421,195.628219 16.2010161,181.563402 16.2959822,173.886528 C16.9328101,122.406586 20.1384619,88.52712 22.0251622,72.263424 C24.3338898,52.361777 23.0178889,33.2889604 18.0771596,15.044974 Z" id="Rectangle-Copy-29" transform="translate(89.224748, 115.499853) rotate(-9.000000) translate(-89.224748, -115.499853) "></path>
        </g>
    </g>
</svg>