<?xml version="1.0" encoding="UTF-8"?>
<svg width="158px" height="214px" viewBox="0 0 158 214" version="1.1" xmlns="http://www.w3.org/2000/svg" xmlns:xlink="http://www.w3.org/1999/xlink">
    <title>Rectangle Copy 18</title>
    <g id="Page-1" stroke="none" stroke-width="1" fill="none" fill-rule="evenodd">
        <g id="-All-Papers-Copy-3" transform="translate(-10.000000, -4.000000)" fill="#FFFFFF">
            <path d="M17.5320164,7.9039143 C55.6691751,11.639101 84.4673341,13.5095783 103.926493,13.5153463 C123.385653,13.5211143 142.610603,11.6648718 161.601344,7.94661867 C159.272652,38.0923996 158.150333,57.6562455 158.234384,66.6381563 C158.640264,110.011114 162.386159,135.05742 161.65155,178.279189 C161.505493,186.872607 160.379902,195.336173 158.274775,203.669887 C131.173223,208.864892 109.286577,211.459924 92.6148372,211.454982 C75.9430972,211.45004 50.9357498,212.333875 17.5927952,214.106487 C16.4033141,193.126683 15.8515456,178.69975 15.9374897,170.825688 C16.5138175,118.023433 19.6793131,83.2770705 21.546694,66.5976399 C23.8317808,46.1872647 22.4935549,26.6226895 17.5320164,7.9039143 Z" id="Rectangle-Copy-18" transform="translate(88.837768, 111.005201) scale(-1, -1) rotate(3.000000) translate(-88.837768, -111.005201) "></path>
        </g>
    </g>
</svg>