<?xml version="1.0" encoding="UTF-8"?>
<svg width="129px" height="168px" viewBox="0 0 129 168" version="1.1" xmlns="http://www.w3.org/2000/svg" xmlns:xlink="http://www.w3.org/1999/xlink">
    <title>Rectangle Copy 14</title>
    <g id="Page-1" stroke="none" stroke-width="1" fill="none" fill-rule="evenodd">
        <g id="-All-Papers-Copy-3" transform="translate(-26.000000, -26.000000)" fill="#FFFFFF">
            <path d="M33.0048671,27.1091243 C57.9034767,26.0559093 77.9470032,25.7527873 93.1354466,26.1997583 C109.476216,26.6806404 129.346004,26.9837624 152.744812,27.1091243 C152.119852,51.2724763 151.400517,78.9027682 150.586808,110 C149.727377,142.844553 151.198441,169.103858 155,188.777915 C125.657021,192.259305 96.6068673,194 67.8495376,194 C51.0919129,194 37.142067,192.259305 26,188.777915 C28.2078372,170.980241 29.3117558,154.496654 29.3117558,139.327156 C29.3117558,116.572908 28.4269103,98.3473392 28.4269103,81.3403877 C28.4269103,56.5429309 29.9528959,38.4658431 33.0048671,27.1091243 Z" id="Rectangle-Copy-14"></path>
        </g>
    </g>
</svg>